<?xml version="1.0" encoding="UTF-8" standalone="no"?>
<!-- Created with Inkscape (http://www.inkscape.org/) -->

<svg
   version="1.1"
   id="svg2955"
   xml:space="preserve"
   width="682.66669"
   height="682.66669"
   viewBox="0 0 682.66669 682.66669"
   xmlns="http://www.w3.org/2000/svg"
   xmlns:svg="http://www.w3.org/2000/svg"><defs
     id="defs2959"><clipPath
       clipPathUnits="userSpaceOnUse"
       id="clipPath2977"><path
         d="M 0,512 H 512 V 0 H 0 Z"
         id="path2975" /></clipPath></defs><g
     id="g2961"
     transform="matrix(1.3333333,0,0,-1.3333333,0,682.66667)"><g
       id="g2963"
       transform="translate(330.4961,44.4561)"><path
         d="M 0,0 H -295.59"
         style="fill:#09ae95;stroke:#09ae95;stroke-width:15;stroke-linecap:round;stroke-linejoin:round;stroke-miterlimit:10;stroke-dasharray:none;stroke-opacity:1"
         id="path2965" /></g><g
       id="g2967"
       transform="translate(77.6401,44.46)"><path
         d="M 0,0 37.78,83.04"
         style="fill:09ae95;stroke:#09ae95;stroke-width:15;stroke-linecap:round;stroke-linejoin:round;stroke-miterlimit:10;stroke-dasharray:none;stroke-opacity:1"
         id="path2969" /></g><g
       id="g2971"><g
         id="g2973"
         clip-path="url(#clipPath2977)"><g
           id="g2979"
           transform="translate(238.1401,44.46)"><path
             d="m 0,0 -22.2,46.09 c -1.58,3.29 -4.91,5.39 -8.57,5.39 h -49.34 c -3.65,0 -6.98,-2.1 -8.57,-5.39 L -110.88,0"
             style="fill:none;stroke:#09ae95;stroke-width:15;stroke-linecap:round;stroke-linejoin:round;stroke-miterlimit:10;stroke-dasharray:none;stroke-opacity:1"
             id="path2981" /></g><g
           id="g2983"
           transform="translate(249.98,127.5)"><path
             d="M 0,0 37.78,-83.04"
             style="fill:none;stroke:#09ae95;stroke-width:15;stroke-linecap:round;stroke-linejoin:round;stroke-miterlimit:10;stroke-dasharray:none;stroke-opacity:1"
             id="path2985" /></g><g
           id="g2987"
           transform="translate(7.5,159.5977)"><path
             d="M 0,0 V 137.668"
             style="fill:none;stroke:#09ae95;stroke-width:15;stroke-linecap:round;stroke-linejoin:round;stroke-miterlimit:10;stroke-dasharray:none;stroke-opacity:1"
             id="path2989" /></g><g
           id="g2991"
           transform="translate(357.8999,249.1104)"><path
             d="M 0,0 V 55.38"
             style="fill:none;stroke:#09ae95;stroke-width:15;stroke-linecap:round;stroke-linejoin:round;stroke-miterlimit:10;stroke-dasharray:none;stroke-opacity:1"
             id="path2993" /></g><g
           id="g2995"
           transform="translate(7.5,332.2695)"><path
             d="m 0,0 v 48.54 c 0,4.171 3.38,7.551 7.55,7.551 h 304.64"
             style="fill:none;stroke:#09ae95;stroke-width:15;stroke-linecap:round;stroke-linejoin:round;stroke-miterlimit:10;stroke-dasharray:none;stroke-opacity:1"
             id="path2997" /></g><g
           id="g2999"
           transform="translate(357.8999,150.3301)"><path
             d="m 0,0 v -15.28 c 0,-4.17 -3.38,-7.55 -7.55,-7.55 h -335.3 c -4.17,0 -7.55,3.38 -7.55,7.55 V 14.7 h 329.79"
             style="fill:none;stroke:#09ae95;stroke-width:15;stroke-linecap:round;stroke-linejoin:round;stroke-miterlimit:10;stroke-dasharray:none;stroke-opacity:1"
             id="path3001" /></g><g
           id="g3003"
           transform="translate(182.7007,301.79)"><path
             d="m 0,0 c -33.71,0 -63.616,-14.646 -82.403,-37.268 -2.722,-3.277 -2.722,-8.061 0,-11.338 18.787,-22.622 48.693,-37.268 82.403,-37.268 33.71,0 63.617,14.646 82.404,37.268 2.721,3.277 2.721,8.061 0,11.338 C 63.617,-14.646 33.71,0 0,0 Z"
             style="fill:none;stroke:#09ae95;stroke-width:15;stroke-linecap:round;stroke-linejoin:round;stroke-miterlimit:10;stroke-dasharray:none;stroke-opacity:1"
             id="path3005" /></g><g
           id="g3007"
           transform="translate(168.0156,300.8428)"><path
             d="m 0,0 c -17.349,-6.067 -29.797,-22.57 -29.797,-41.989 0,-19.42 12.448,-35.922 29.797,-41.99"
             style="fill:none;stroke:#09ae95;stroke-width:15;stroke-linecap:round;stroke-linejoin:round;stroke-miterlimit:10;stroke-dasharray:none;stroke-opacity:1"
             id="path3009" /></g><g
           id="g3011"
           transform="translate(197.3857,216.8643)"><path
             d="M 0,0 C 17.349,6.067 29.797,22.569 29.797,41.989 29.797,61.408 17.349,77.911 0,83.979"
             style="fill:none;stroke:#09ae95;stroke-width:15;stroke-linecap:round;stroke-linejoin:round;stroke-miterlimit:10;stroke-dasharray:none;stroke-opacity:1"
             id="path3013" /></g><g
           id="g3015"
           transform="translate(182.7007,339.4404)"><path
             d="M 0,0 V -7.291"
             style="fill:none;stroke:#09ae95;stroke-width:15;stroke-linecap:round;stroke-linejoin:round;stroke-miterlimit:10;stroke-dasharray:none;stroke-opacity:1"
             id="path3017" /></g><g
           id="g3019"
           transform="translate(237.2993,323.1973)"><path
             d="M 0,0 2.982,2.982"
             style="fill:none;stroke:#09ae95;stroke-width:15;stroke-linecap:round;stroke-linejoin:round;stroke-miterlimit:10;stroke-dasharray:none;stroke-opacity:1"
             id="path3021" /></g><g
           id="g3023"
           transform="translate(128.1025,323.1973)"><path
             d="M 0,0 -2.982,2.982"
             style="fill:none;stroke:#09ae95;stroke-width:15;stroke-linecap:round;stroke-linejoin:round;stroke-miterlimit:10;stroke-dasharray:none;stroke-opacity:1"
             id="path3025" /></g><g
           id="g3027"
           transform="translate(394.9399,205.6396)"><path
             d="m 0,0 c -3.32,41.07 -36.75,48.761 -82.55,46.07 -3.7,-0.219 -6.67,-3.19 -6.88,-6.889 -2.69,-45.79 5,-79.221 46.06,-82.551"
             style="fill:none;stroke:#09ae95;stroke-width:15;stroke-linecap:round;stroke-linejoin:round;stroke-miterlimit:10;stroke-dasharray:none;stroke-opacity:1"
             id="path3029" /></g><g
           id="g3031"
           transform="translate(414.21,112.1104)"><path
             d="M 0,0 -15.19,15.189"
             style="fill:none;stroke:#09ae95;stroke-width:15;stroke-linecap:round;stroke-linejoin:round;stroke-miterlimit:10;stroke-dasharray:none;stroke-opacity:1"
             id="path3033" /></g><g
           id="g3035"
           transform="translate(429.9199,158.2002)"><path
             d="m 0,0 60.22,-60.23 c 1.96,-1.951 1.96,-5.121 0,-7.07 L 36.39,-91.13 c -1.95,-1.95 -5.11,-1.95 -7.07,0 L 9.03,-70.84"
             style="fill:none;stroke:#09ae95;stroke-width:15;stroke-linecap:round;stroke-linejoin:round;stroke-miterlimit:10;stroke-dasharray:none;stroke-opacity:1"
             id="path3037" /></g><g
           id="g3039"
           transform="translate(384.8472,123.3828)"><path
             d="m 0,0 -31.512,31.512 c -2.832,2.832 -2.832,7.424 0,10.256 L 7.217,80.497 c 2.832,2.832 7.425,2.832 10.257,0 L 48.985,48.984 c 2.833,-2.832 2.833,-7.423 0,-10.255 L 10.256,0 C 7.424,-2.833 2.833,-2.833 0,0 Z"
             style="fill:none;stroke:#09ae95;stroke-width:15;stroke-linecap:round;stroke-linejoin:round;stroke-miterlimit:10;stroke-dasharray:none;stroke-opacity:1"
             id="path3041" /></g><g
           id="g3043"
           transform="translate(365.1953,430.292)"><path
             d="M 0,0 H 93.799"
             style="fill:none;stroke:#09ae95;stroke-width:15;stroke-linecap:round;stroke-linejoin:round;stroke-miterlimit:10;stroke-dasharray:none;stroke-opacity:1"
             id="path3045" /></g><g
           id="g3047"
           transform="translate(365.1953,396.2139)"><path
             d="M 0,0 H 93.799"
             style="fill:none;stroke:#09ae95;stroke-width:15;stroke-linecap:round;stroke-linejoin:round;stroke-miterlimit:10;stroke-dasharray:none;stroke-opacity:1"
             id="path3049" /></g><g
           id="g3051"
           transform="translate(365.1953,362.1357)"><path
             d="M 0,0 H 45.458"
             style="fill:none;stroke:#09ae95;stroke-width:15;stroke-linecap:round;stroke-linejoin:round;stroke-miterlimit:10;stroke-dasharray:none;stroke-opacity:1"
             id="path3053" /></g><g
           id="g3055"
           transform="translate(485.8145,467.5439)"><path
             d="m 0,0 h -147.44 c -10.319,0 -18.685,-8.365 -18.685,-18.685 v -105.289 c 0,-7.388 4.293,-13.761 10.518,-16.788 3.128,-1.52 5.202,-4.593 5.202,-8.072 v -23.482 c 0,-5.327 6.527,-7.894 10.155,-3.995 l 26.659,28.649 c 2.969,3.19 7.131,5.003 11.489,5.003 H 0 c 10.32,0 18.686,8.365 18.686,18.685 V -18.686 C 18.686,-8.365 10.32,0 0,0 Z"
             style="fill:none;stroke:#09ae95;stroke-width:15;stroke-linecap:round;stroke-linejoin:round;stroke-miterlimit:10;stroke-dasharray:none;stroke-opacity:1"
             id="path3057" /></g></g></g></g></svg>
